PathFileType	4	(X/Y/Z)	/Users/itak/Documents/Research/Walk-IL/dataset/trc/00238_00009.trc
DataRate	CameraRate	NumFrames	NumMarkers	Units	OrigDataRate	OrigDataStartFrame	OrigNumFrames
100.000000	100.000000	4	53	mm	100.000000	620	827
Frame#	Time	RPSI			LPSI			L3			STRN			T10			C7			CLAV			RBAK			LBAK			LSHO			LUPA			LAEL			LAOL			LWTS			LWPS			LFRA			LIFD			LHPS			LHTS			RSHO			RUPA			RAEL			RAOL			RWTS			RWPS			RFRA			RIFD			RHTS			RHPS			RBHD			LFHD			RFHD			LBHD			LHIP			RHIP			RASI			LASI			LKNE			LTHI			LANK			LTIP			LTOE			LMT1			LMT5			LHEE			RKNE			RTHI			RANK			RTIP			RTOE			RMT1			RMT5			RHEE			
		X1	Y1	Z1	X2	Y2	Z2	X3	Y3	Z3	X4	Y4	Z4	X5	Y5	Z5	X6	Y6	Z6	X7	Y7	Z7	X8	Y8	Z8	X9	Y9	Z9	X10	Y10	Z10	X11	Y11	Z11	X12	Y12	Z12	X13	Y13	Z13	X14	Y14	Z14	X15	Y15	Z15	X16	Y16	Z16	X17	Y17	Z17	X18	Y18	Z18	X19	Y19	Z19	X20	Y20	Z20	X21	Y21	Z21	X22	Y22	Z22	X23	Y23	Z23	X24	Y24	Z24	X25	Y25	Z25	X26	Y26	Z26	X27	Y27	Z27	X28	Y28	Z28	X29	Y29	Z29	X30	Y30	Z30	X31	Y31	Z31	X32	Y32	Z32	X33	Y33	Z33	X34	Y34	Z34	X35	Y35	Z35	X36	Y36	Z36	X37	Y37	Z37	X38	Y38	Z38	X39	Y39	Z39	X40	Y40	Z40	X41	Y41	Z41	X42	Y42	Z42	X43	Y43	Z43	X44	Y44	Z44	X45	Y45	Z45	X46	Y46	Z46	X47	Y47	Z47	X48	Y48	Z48	X49	Y49	Z49	X50	Y50	Z50	X51	Y51	Z51	X52	Y52	Z52	X53	Y53	Z53	

621	6.2	738.65185546875	1032.418823242188	230.2578125	849.080322265625	1042.318603515625	277.3632202148438	812.4600830078125	1123.681640625	253.7396545410156	720.8379516601562	1304.278686523438	485.8658142089844	811.3983154296875	1249.671508789062	250.6987152099609	794.4744262695312	1510.40966796875	312.8627624511719	730.2850952148438	1422.04931640625	463.0615844726562	753.4244384765625	1374.579956054688	210.8261871337891	903.6927490234375	1470.2333984375	335.8851318359375	920.458251953125	1470.236206054688	439.4501953125	1006.509582519531	1355.743530273438	447.9403381347656	1038.578735351562	1151.30078125	493.4064025878906	1018.883117675781	1120.812377929688	414.2286376953125	941.548095703125	949.2053833007812	614.7245483398438	1022.593139648438	927.7907104492188	621.7578735351562	1039.04248046875	1053.096435546875	542.8180541992188	935.9930419921875	764.2614135742188	681.3411865234375	1007.143310546875	848.5431518554688	661.0164794921875	943.159423828125	863.3435668945312	680.8196411132812	615.3150024414062	1472.041748046875	302.5136413574219	559.76708984375	1408.793090820312	257.6844787597656	525.2723388671875	1128.513793945312	221.4136962890625	620.0418090820312	1120.050048828125	218.3609008789062	522.2193603515625	940.6599731445312	395.1966552734375	477.4732971191406	912.4038696289062	326.9119567871094	503.2008666992188	1062.06640625	250.4682922363281	508.9176330566406	758.0870971679688	456.0802307128906	485.2532043457031	833.860107421875	452.5863647460938	457.2252807617188	818.096923828125	386.9888916015625	734.5715942382812	1663.823608398438	333.5107421875	733.7295532226562	1708.250854492188	556.59033203125	642.864501953125	1704.718627929688	512.9757690429688	834.9125366210938	1674.0341796875	430.5145568847656	938.9083862304688	987.0249633789062	427.9989624023438	601.4629516601562	995.4098510742188	286.7142333984375	599.0570678710938	1041.774291992188	381.1489868164062	854.8386840820312	1027.751342773438	500.7061767578125	857.5864868164062	512.3137817382812	519.7230224609375	894.8993530273438	652.1626586914062	500.739990234375	876.666748046875	22.880615234375	464.3975524902344	878.368896484375	280.7578735351562	492.9628601074219	708.9515380859375	45.58885192871094	607.318603515625	712.5264892578125	42.91558074951172	528.8731689453125	814.864990234375	26.69447326660156	578.677978515625	867.1448974609375	34.74419021606445	384.8677368164062	579.8743896484375	507.6072692871094	387.8352661132812	565.771484375	775.0535278320312	352.7445983886719	742.7361450195312	164.3119506835938	81.09922790527344	610.802734375	401.2926635742188	352.2377319335938	690.0899047851562	51.72862243652344	245.0362243652344	753.1797485351562	69.93466949462891	223.3640899658203	672.1229248046875	99.53716278076172	139.4797821044922	818.7962646484375	197.4478302001953	69.89772033691406	
622	6.21	739.4967651367188	1032.61767578125	235.0500335693359	849.299072265625	1042.660888671875	283.4465637207031	813.2283325195312	1124.338989257812	259.5129699707031	718.8424072265625	1304.707763671875	491.0057983398438	812.3534545898438	1250.3466796875	256.5999450683594	794.6644287109375	1510.996337890625	319.0669860839844	728.540283203125	1422.53564453125	468.3584899902344	754.81640625	1375.332397460938	216.3213958740234	903.6163940429688	1470.7783203125	343.511962890625	918.8634643554688	1470.749389648438	447.2684020996094	1004.634460449219	1356.350341796875	457.5973815917969	1035.314697265625	1152.157592773438	505.4362182617188	1017.5966796875	1121.16650390625	426.0018005371094	934.57568359375	950.9317626953125	625.1888427734375	1015.474243164062	929.8313598632812	635.2139282226562	1034.267578125	1054.393920898438	555.63818359375	927.23974609375	766.7115478515625	693.4908447265625	998.9910278320312	850.9241333007812	674.6890258789062	934.376953125	865.8080444335938	692.4683837890625	615.6278686523438	1472.782592773438	306.3741760253906	560.6433715820312	1409.612915039062	260.7511291503906	526.4358520507812	1129.410400390625	223.6803131103516	621.2793579101562	1120.922485351562	221.8813629150391	520.6419067382812	942.1907348632812	397.9559631347656	477.0927124023438	913.6017456054688	329.1455688476562	503.9386901855469	1063.047729492188	252.3702239990234	506.3097229003906	759.9573364257812	459.6064758300781	482.742431640625	835.7061767578125	455.3768615722656	455.8927001953125	819.578857421875	389.3864135742188	734.2963256835938	1664.474853515625	339.3653564453125	730.87158203125	1708.340698242188	562.7308959960938	640.4341430664062	1704.82080078125	517.839111328125	833.46826171875	1674.470092773438	437.6001281738281	937.7742309570312	987.5315551757812	434.888427734375	601.9364624023438	996.0203857421875	290.0094909667969	598.5416259765625	1042.380126953125	384.5752868652344	852.94775390625	1028.277099609375	506.7398681640625	857.5010375976562	511.8207092285156	521.9137573242188	894.2093505859375	652.1761474609375	504.7135925292969	876.531005859375	22.96045112609863	464.3155212402344	878.4613647460938	280.6365356445312	493.8555603027344	708.7520141601562	45.12974166870117	607.5659790039062	712.400390625	42.71679306030273	528.984375	814.8670043945312	26.67150688171387	578.7451782226562	867.0823974609375	34.84413528442383	384.9175415039062	575.8175048828125	509.3209533691406	396.4471740722656	564.1489868164062	776.5555419921875	357.5436706542969	740.1580200195312	157.4325714111328	99.70604705810547	606.228759765625	402.0964050292969	363.1460571289062	684.7860107421875	52.5892333984375	267.185546875	748.3231201171875	69.05728912353516	245.4798889160156	668.3589477539062	95.75337219238281	159.7581024169922	816.4714965820312	189.5808868408203	87.83448028564453	
623	6.22	740.339599609375	1032.86376953125	239.7455596923828	849.4585571289062	1042.973999023438	289.4704284667969	813.9153442382812	1124.930786132812	265.2310485839844	716.8275146484375	1305.102416992188	496.0827026367188	813.2338256835938	1250.948974609375	262.4180603027344	794.778564453125	1511.533203125	325.1694641113281	726.7938842773438	1422.989135742188	473.5943298339844	756.140625	1376.015625	221.749755859375	903.44775390625	1471.261962890625	351.0357055664062	917.1923217773438	1471.224609375	454.9489135742188	1002.655944824219	1356.91259765625	467.0823974609375	1031.900268554688	1152.984619140625	517.185791015625	1016.099304199219	1121.4912109375	437.560302734375	927.5632934570312	952.6954956054688	635.4682006835938	1008.217651367188	931.8776245117188	648.3102416992188	1029.341674804688	1055.6708984375	568.136474609375	918.4189453125	769.167236328125	705.3112182617188	990.71435546875	853.3138427734375	687.9833984375	925.5377807617188	868.2747802734375	703.7675170898438	615.8975219726562	1473.453125	310.1701354980469	561.4740600585938	1410.356811523438	263.7647705078125	527.58935546875	1130.239135742188	225.9248199462891	622.549560546875	1121.786743164062	225.2791290283203	519.0964965820312	943.5153198242188	400.5394592285156	476.7102355957031	914.6613159179688	331.2225952148438	504.6900329589844	1063.933349609375	254.2671661376953	503.725341796875	761.60302734375	462.7631530761719	480.2698059082031	837.32421875	457.9157104492188	454.56884765625	820.8785400390625	391.5547180175781	733.9361572265625	1665.08642578125	345.1318054199219	727.9540405273438	1708.37646484375	568.74462890625	637.944091796875	1704.872680664062	522.600830078125	831.939453125	1674.870361328125	444.5739135742188	936.5731201171875	988.0311889648438	441.7193908691406	602.39404296875	996.562255859375	293.23193359375	598.0101928710938	1042.917236328125	387.9287719726562	850.9521484375	1028.723510742188	512.646484375	857.4666748046875	511.3275756835938	523.952880859375	893.5146484375	652.1927490234375	508.5912475585938	876.3701782226562	23.04328536987305	464.2357482910156	878.5889282226562	280.5540161132812	494.62353515625	708.5660400390625	44.67769622802734	607.8179931640625	712.2710571289062	42.53324508666992	529.0833129882812	814.8689575195312	26.64636039733887	578.8115234375	867.0079956054688	34.95193481445312	384.9801330566406	571.731689453125	510.9916381835938	404.8490295410156	562.4412841796875	778.0092163085938	362.1373291015625	736.9991455078125	149.9168090820312	118.7881546020508	601.57373046875	402.7438659667969	373.9323120117188	679.0674438476562	53.34992980957031	289.7875366210938	743.0472412109375	68.1126708984375	268.0710144042969	664.1524658203125	91.52748107910156	180.5700225830078	813.5642700195312	181.0447540283203	106.1881942749023	
624	6.23	741.1619262695312	1033.135375976562	244.3676300048828	849.5692749023438	1043.267578125	295.4306945800781	814.518310546875	1125.464965820312	270.8890075683594	714.77001953125	1305.455322265625	501.0561218261719	814.034912109375	1251.486694335938	268.1638793945312	794.8082275390625	1512.019897460938	331.1788635253906	725.0322875976562	1423.414184570312	478.7780151367188	757.39453125	1376.634033203125	227.1204681396484	903.1834716796875	1471.69384765625	358.4635925292969	915.4371948242188	1471.6640625	462.5039672851562	1000.568359375	1357.429931640625	476.3970336914062	1028.348266601562	1153.776611328125	528.6337280273438	1014.390563964844	1121.786499023438	448.8765563964844	920.5269165039062	954.49072265625	645.54296875	1000.85205078125	933.910888671875	661.0156860351562	1024.284790039062	1056.916381835938	580.2857055664062	909.5264892578125	771.6375122070312	716.8171997070312	982.3296508789062	855.7003784179688	700.8782958984375	916.6712646484375	870.7542114257812	714.7222900390625	616.1185913085938	1474.053588867188	313.903564453125	562.256103515625	1411.025390625	266.7303466796875	528.719970703125	1130.995239257812	228.1613159179688	623.8477172851562	1122.6474609375	228.5549926757812	517.5960083007812	944.6189575195312	402.9537353515625	476.3232727050781	915.5750122070312	333.1470031738281	505.4399719238281	1064.717895507812	256.1853637695312	501.1702880859375	763.0105590820312	465.5522766113281	477.8433227539062	838.6989135742188	460.1968688964844	453.2533569335938	821.9894409179688	393.4950866699219	733.4899291992188	1665.655517578125	350.8084716796875	724.9722900390625	1708.361938476562	574.6044921875	635.4014892578125	1704.885009765625	527.2606201171875	830.327880859375	1675.234619140625	451.4320373535156	935.302001953125	988.5166625976562	448.4928588867188	602.8243408203125	997.033935546875	296.3912963867188	597.4515991210938	1043.38427734375	391.2191772460938	848.8565673828125	1029.09521484375	518.4492797851562	857.4716796875	510.8423461914062	525.8496704101562	892.8046875	652.211181640625	512.3762817382812	876.1873779296875	23.13337135314941	464.163330078125	878.7392578125	280.4984130859375	495.2835083007812	708.3944702148438	44.24209213256836	608.0594482421875	712.1394653320312	42.36742782592773	529.163818359375	814.8681640625	26.61960792541504	578.8750610351562	866.9281616210938	35.07767486572266	385.0472717285156	567.6365356445312	512.63330078125	413.00146484375	560.6464233398438	779.4208374023438	366.5269470214844	733.311767578125	142.0104064941406	138.2827301025391	596.8820190429688	403.2740173339844	384.5582580566406	672.5870361328125	54.04882431030273	312.5256652832031	737.078125	67.07715606689453	290.9441528320312	659.3524169921875	87.13835144042969	201.6564331054688	810.209228515625	171.9600219726562	125.0586242675781	
